<svg width="16" height="16" viewBox="0 0 16 16" fill="none" xmlns="http://www.w3.org/2000/svg">
<path fill-rule="evenodd" clip-rule="evenodd" d="M14 8.00401C13.6318 8.00401 13.3333 8.30248 13.3333 8.67067V12.6707C13.3333 13.0389 13.0349 13.3373 12.6667 13.3373H3.33334C2.96515 13.3373 2.66668 13.0389 2.66668 12.6707V3.33734C2.66668 2.96915 2.96515 2.67067 3.33334 2.67067H7.33334C7.70153 2.67067 8.00001 2.3722 8.00001 2.00401C8.00001 1.63582 7.70153 1.33734 7.33334 1.33734H3.33334C2.22877 1.33734 1.33334 2.23277 1.33334 3.33734V12.6707C1.33334 13.7752 2.22877 14.6707 3.33334 14.6707H12.6667C13.7712 14.6707 14.6667 13.7752 14.6667 12.6707V8.67067C14.6667 8.30248 14.3682 8.00401 14 8.00401ZM4.00002 8.5107V11.3374C4.00002 11.7056 4.29849 12.004 4.66668 12.004H7.49335C7.67055 12.0051 7.84087 11.9355 7.96668 11.8107L12.58 7.19069L14.4733 5.33736C14.5996 5.21218 14.6705 5.04179 14.6705 4.86403C14.6705 4.68627 14.5996 4.51587 14.4733 4.3907L11.6467 1.53069C11.5215 1.40449 11.3511 1.3335 11.1733 1.3335C10.9956 1.3335 10.8252 1.40449 10.7 1.53069L8.82002 3.41736L4.19335 8.03736C4.06856 8.16317 3.99899 8.33349 4.00002 8.5107ZM11.1733 2.94404L13.06 4.8307L12.1133 5.77737L10.2267 3.8907L11.1733 2.94404ZM5.33334 8.78401L9.28668 4.83068L11.1733 6.71734L7.22001 10.6707H5.33334V8.78401Z" fill="#171717" fill-opacity="0.8"/>
</svg>
