<svg width="14" height="14" viewBox="0 0 14 14" fill="none" xmlns="http://www.w3.org/2000/svg">
<path fill-rule="evenodd" clip-rule="evenodd" d="M6.99992 13.6666C10.6818 13.6666 13.6666 10.6818 13.6666 6.99992C13.6666 3.31802 10.6818 0.333252 6.99992 0.333252C3.31802 0.333252 0.333252 3.31802 0.333252 6.99992C0.333252 10.6818 3.31802 13.6666 6.99992 13.6666ZM6.99992 12.3333C9.94545 12.3333 12.3333 9.94545 12.3333 6.99992C12.3333 4.0544 9.94545 1.66659 6.99992 1.66659C4.0544 1.66659 1.66659 4.0544 1.66659 6.99992C1.66659 9.94545 4.0544 12.3333 6.99992 12.3333ZM7.66659 6.33325V3.66658H6.33325V7.66659H9.66658V6.33325H7.66659Z" fill="#171717"/>
</svg>
