<svg width="16" height="17" viewBox="0 0 16 17" fill="none" xmlns="http://www.w3.org/2000/svg">
<path fill-rule="evenodd" clip-rule="evenodd" d="M12.1667 3.16675V2.33341C12.1667 1.41294 11.4205 0.666748 10.5 0.666748H5.5C4.57952 0.666748 3.83333 1.41294 3.83333 2.33341V3.16675H1.33333C0.8731 3.16675 0.5 3.53985 0.5 4.00008C0.5 4.46031 0.8731 4.83341 1.33333 4.83341H2.16667V14.0001C2.16667 15.3808 3.28596 16.5001 4.66667 16.5001H11.3333C12.7141 16.5001 13.8333 15.3808 13.8333 14.0001V4.83341H14.6667C15.1269 4.83341 15.5 4.46031 15.5 4.00008C15.5 3.53985 15.1269 3.16675 14.6667 3.16675H12.1667ZM10.5 2.33341H5.5V3.16675H10.5V2.33341ZM12.1667 4.83341H3.83333V14.0001C3.83333 14.4603 4.20643 14.8334 4.66667 14.8334H11.3333C11.7936 14.8334 12.1667 14.4603 12.1667 14.0001V4.83341ZM5.5 6.50008H7.16667V13.1667H5.5V6.50008ZM10.5 6.50008H8.83333V13.1667H10.5V6.50008Z" fill="white"/>
</svg>
