<svg width="13" height="17" viewBox="0 0 13 17" fill="none" xmlns="http://www.w3.org/2000/svg">
<path fill-rule="evenodd" clip-rule="evenodd" d="M6.42976 16.8429C9.98082 16.8429 12.8595 14.0151 12.8595 10.5268C12.8595 7.03854 9.98082 4.21073 6.42976 4.21073C2.8787 4.21073 0 7.03854 0 10.5268C0 14.0151 2.8787 16.8429 6.42976 16.8429ZM4.64545 13.6499L9.5418 10.7005C9.57343 10.6814 9.59937 10.6556 9.61731 10.6253C9.63525 10.595 9.64464 10.5612 9.64464 10.5268C9.64464 10.4925 9.63525 10.4586 9.61731 10.4284C9.59937 10.3981 9.57343 10.3722 9.5418 10.3532L4.64545 7.40373C4.61067 7.38282 4.57026 7.37082 4.52853 7.36902C4.48679 7.36721 4.4453 7.37567 4.40846 7.39349C4.37163 7.41131 4.34084 7.43782 4.31936 7.4702C4.29788 7.50259 4.28653 7.53963 4.28651 7.57738V13.4763C4.28653 13.514 4.29788 13.5511 4.31936 13.5834C4.34084 13.6158 4.37163 13.6423 4.40846 13.6602C4.4453 13.678 4.48679 13.6864 4.52853 13.6846C4.57026 13.6828 4.61067 13.6708 4.64545 13.6499Z" fill="#7E2DFC"/>
<path d="M3.75069 3.15805C4.63846 3.15805 5.35813 2.45109 5.35813 1.57902C5.35813 0.706953 4.63846 0 3.75069 0C2.86293 0 2.14325 0.706953 2.14325 1.57902C2.14325 2.45109 2.86293 3.15805 3.75069 3.15805Z" fill="#7E2DFC"/>
<path d="M10.7163 1.57902C10.7163 2.45109 9.99659 3.15805 9.10883 3.15805C8.22106 3.15805 7.50139 2.45109 7.50139 1.57902C7.50139 0.706953 8.22106 0 9.10883 0C9.99659 0 10.7163 0.706953 10.7163 1.57902Z" fill="#7E2DFC"/>
</svg>
