<svg width="34" height="45" viewBox="0 0 34 45" fill="none" xmlns="http://www.w3.org/2000/svg">
<path fill-rule="evenodd" clip-rule="evenodd" d="M16.9609 44.3281C26.3023 44.3281 33.875 36.891 33.875 27.7168C33.875 18.5426 26.3023 11.1055 16.9609 11.1055C7.61956 11.1055 0.046875 18.5426 0.046875 27.7168C0.046875 36.891 7.61956 44.3281 16.9609 44.3281ZM12.2672 35.9305L25.1474 28.1735C25.2307 28.1234 25.2989 28.0554 25.3461 27.9758C25.3933 27.8961 25.418 27.8072 25.418 27.7168C25.418 27.6264 25.3933 27.5375 25.3461 27.4578C25.2989 27.3782 25.2307 27.3102 25.1474 27.2601L12.2672 19.5031C12.1757 19.4481 12.0694 19.4165 11.9596 19.4118C11.8498 19.407 11.7406 19.4293 11.6437 19.4761C11.5468 19.523 11.4658 19.5927 11.4093 19.6779C11.3528 19.763 11.323 19.8605 11.3229 19.9598V35.4738C11.323 35.5731 11.3528 35.6705 11.4093 35.7557C11.4658 35.8409 11.5468 35.9106 11.6437 35.9575C11.7406 36.0043 11.8498 36.0266 11.9596 36.0218C12.0694 36.0171 12.1757 35.9855 12.2672 35.9305Z" fill="white"/>
<path d="M9.91341 8.33691C12.2488 8.33691 14.1419 6.47763 14.1419 4.18408C14.1419 1.89054 12.2488 0.03125 9.91341 0.03125C7.57807 0.03125 5.6849 1.89054 5.6849 4.18408C5.6849 6.47763 7.57807 8.33691 9.91341 8.33691Z" fill="white"/>
<path d="M28.237 4.18408C28.237 6.47763 26.3438 8.33691 24.0085 8.33691C21.6731 8.33691 19.7799 6.47763 19.7799 4.18408C19.7799 1.89054 21.6731 0.03125 24.0085 0.03125C26.3438 0.03125 28.237 1.89054 28.237 4.18408Z" fill="white"/>
</svg>
