<svg width="22" height="18" viewBox="0 0 22 18" fill="none" xmlns="http://www.w3.org/2000/svg">
<path fill-rule="evenodd" clip-rule="evenodd" d="M10 4C10 6.20914 8.2091 8 6 8C3.79086 8 2 6.20914 2 4C2 1.79086 3.79086 0 6 0C8.2091 0 10 1.79086 10 4ZM8 4C8 5.10457 7.1046 6 6 6C4.8954 6 4 5.10457 4 4C4 2.89543 4.8954 2 6 2C7.1046 2 8 2.89543 8 4ZM16 8C18.2091 8 20 6.20914 20 4C20 1.79086 18.2091 0 16 0C13.7909 0 12 1.79086 12 4C12 6.20914 13.7909 8 16 8ZM16 6C17.1046 6 18 5.10457 18 4C18 2.89543 17.1046 2 16 2C14.8954 2 14 2.89543 14 4C14 5.10457 14.8954 6 16 6ZM19 11C19.5523 11 20 11.4477 20 12V18H22V12C22 10.3431 20.6569 9 19 9H14L15 11H19ZM9 11C9.5523 11 10 11.4477 10 12V18H12V12C12 10.3431 10.6569 9 9 9H3C1.34315 9 0 10.3431 0 12V18H2V12C2 11.4477 2.44772 11 3 11H9Z" fill="#8F92A1"/>
</svg>
